<svg  viewBox="0 0 60 37" fill="none" xmlns="http://www.w3.org/2000/svg">
<path d="M2.92397 26.3181L2.92225 26.3198C2.44226 26.7925 2.06109 27.3559 1.80091 27.9773C1.54073 28.5987 1.40674 29.2656 1.40674 29.9393C1.40674 30.613 1.54073 31.2799 1.80091 31.9013C2.06086 32.5221 2.4416 33.0851 2.921 33.5576C3.88898 34.5157 5.19593 35.0531 6.55792 35.0531C7.91368 35.0531 9.21492 34.5206 10.1816 33.5707L30.0001 15.3582L49.831 33.5714C50.7994 34.5198 52.101 35.0512 53.4569 35.0512C54.8191 35.0512 56.1265 34.5148 57.0962 33.5582C57.5759 33.0856 57.9569 32.5224 58.2169 31.9013C58.4771 31.2799 58.6111 30.613 58.6111 29.9393C58.6111 29.2656 58.4771 28.5987 58.2169 27.9773C57.9567 27.3559 57.5756 26.7925 57.0956 26.3198L57.0939 26.3181L33.6482 3.34042C33.6479 3.3401 33.6476 3.33978 33.6472 3.33946C32.6776 2.38341 31.3706 1.84741 30.0089 1.84741C28.6472 1.84741 27.3402 2.38341 26.3706 3.33947C26.3703 3.33978 26.3699 3.3401 26.3696 3.34042L2.92397 26.3181Z" fill="currentColor" stroke="currentColor" stroke-width="1"/>
</svg>
