<svg viewBox="0 0 128 128" fill="none" xmlns="http://www.w3.org/2000/svg">
<rect width="128" height="128" rx="20" fill="#FF6B6B"/>
<path d="M102.182 60.1818H97.9818C97.2182 53.6909 94.5455 47.5818 90.7273 42.6182L93.7818 39.5636C95.3091 38.0364 95.3091 35.7455 93.7818 34.2182C92.2545 32.6909 89.9636 32.6909 88.4364 34.2182L85.3818 37.2727C80.4182 33.0727 74.3091 30.7818 67.8182 30.0182V25.8182C67.8182 23.5273 66.2909 22 64 22C61.7091 22 60.1818 23.5273 60.1818 25.8182V30.0182C53.6909 30.4 47.5818 33.0727 42.6182 37.2727L39.5636 34.2182C38.0364 32.6909 35.7455 32.6909 34.2182 34.2182C32.6909 35.7455 32.6909 38.0364 34.2182 39.5636L37.2727 42.6182C33.0727 47.5818 30.4 53.6909 30.0182 60.1818H25.8182C23.5273 60.1818 22 61.7091 22 64C22 66.2909 23.5273 67.8182 25.8182 67.8182H30.0182C30.7818 74.3091 33.4545 80.4182 37.2727 85.3818L34.2182 88.4364C32.6909 89.9636 32.6909 92.2545 34.2182 93.7818C35.7455 95.3091 38.0364 95.3091 39.5636 93.7818L42.6182 90.7273C47.5818 94.9273 53.6909 97.2182 60.1818 97.9818V102.182C60.1818 104.473 61.7091 106 64 106C66.2909 106 67.8182 104.473 67.8182 102.182V97.9818C74.3091 97.2182 80.4182 94.5455 85.3818 90.7273L88.4364 93.7818C89.9636 95.3091 92.2545 95.3091 93.7818 93.7818C95.3091 92.2545 95.3091 89.9636 93.7818 88.4364L90.7273 85.3818C94.9273 80.4182 97.2182 74.3091 97.9818 67.8182H102.182C104.473 67.8182 106 66.2909 106 64C106 61.7091 104.473 60.1818 102.182 60.1818ZM52.5455 79.2727C50.2545 79.2727 48.7273 77.7455 48.7273 75.4545C48.7273 73.1636 50.2545 71.6364 52.5455 71.6364C54.8364 71.6364 56.3636 73.1636 56.3636 75.4545C56.3636 77.7455 54.8364 79.2727 52.5455 79.2727ZM54.4545 64C51.4 64 48.7273 61.3273 48.7273 58.2727C48.7273 55.2182 51.4 52.5455 54.4545 52.5455C57.5091 52.5455 60.1818 55.2182 60.1818 58.2727C60.1818 61.3273 57.5091 64 54.4545 64ZM73.5455 75.4545C70.4909 75.4545 67.8182 72.7818 67.8182 69.7273C67.8182 66.6727 70.4909 64 73.5455 64C76.6 64 79.2727 66.6727 79.2727 69.7273C79.2727 72.7818 76.6 75.4545 73.5455 75.4545ZM75.4545 56.3636C73.1636 56.3636 71.6364 54.8364 71.6364 52.5455C71.6364 50.2545 73.1636 48.7273 75.4545 48.7273C77.7455 48.7273 79.2727 50.2545 79.2727 52.5455C79.2727 54.8364 77.7455 56.3636 75.4545 56.3636Z" fill="#FFC9C9"/>
</svg>
