<svg  viewBox="0 0 18 14" fill="currentColor" xmlns="http://www.w3.org/2000/svg">
<path d="M17.05 5.71429H0.95C0.42533 5.71429 0 6.18216 0 6.75929V6.86929C0 7.44643 0.42533 7.91429 0.95 7.91429H17.05C17.5747 7.91429 18 7.44643 18 6.86929V6.75929C18 6.18216 17.5747 5.71429 17.05 5.71429Z" fill="currentColor"/>
<path d="M17.05 11.4286H0.95C0.42533 11.4286 0 11.8965 0 12.4736V12.5836C0 13.1607 0.42533 13.6286 0.95 13.6286H17.05C17.5747 13.6286 18 13.1607 18 12.5836V12.4736C18 11.8965 17.5747 11.4286 17.05 11.4286Z" fill="currentColor"/>
<path d="M17.05 0H0.95C0.42533 0 0 0.467862 0 1.045V1.155C0 1.73214 0.42533 2.2 0.95 2.2H17.05C17.5747 2.2 18 1.73214 18 1.155V1.045C18 0.467862 17.5747 0 17.05 0Z" fill="#currentColor"/>
</svg>
