<svg  viewBox="0 0 512 342" fill="none" xmlns="http://www.w3.org/2000/svg">
<path d="M512 0.331055H0V341.668H512V0.331055Z" fill="#F0F0F0"/>
<path d="M512 42.9939H0V85.6569H512V42.9939Z" fill="#D80027"/>
<path d="M512 128.331H0V170.994H512V128.331Z" fill="#D80027"/>
<path d="M512 213.657H0V256.32H512V213.657Z" fill="#D80027"/>
<path d="M512 298.994H0V341.657H512V298.994Z" fill="#D80027"/>
<path d="M256 0.331055H0V184.128H256V0.331055Z" fill="#2E52B2"/>
<path d="M99.8218 75.624L95.6988 88.308H82.3628L93.1538 96.143L89.0308 108.826L99.8218 100.991L110.606 108.826L106.484 96.143L117.275 88.308H103.938L99.8218 75.624Z" fill="#F0F0F0"/>
<path d="M103.938 134.08L99.8218 121.397L95.6988 134.08H82.3628L93.1538 141.916L89.0308 154.599L99.8218 146.763L110.606 154.599L106.484 141.916L117.275 134.08H103.938Z" fill="#F0F0F0"/>
<path d="M47.577 134.08L43.46 121.397L39.337 134.08H26.001L36.792 141.916L32.669 154.599L43.46 146.763L54.245 154.599L50.123 141.916L60.912 134.08H47.577Z" fill="#F0F0F0"/>
<path d="M43.46 75.624L39.337 88.308H26.001L36.792 96.143L32.669 108.826L43.46 100.991L54.245 108.826L50.123 96.143L60.912 88.308H47.577L43.46 75.624Z" fill="#F0F0F0"/>
<path d="M99.8218 29.8501L95.6988 42.5351H82.3628L93.1538 50.3711L89.0308 63.0541L99.8218 55.2181L110.606 63.0541L106.484 50.3711L117.275 42.5351H103.938L99.8218 29.8501Z" fill="#F0F0F0"/>
<path d="M43.46 29.8501L39.337 42.5351H26.001L36.792 50.3711L32.669 63.0541L43.46 55.2181L54.245 63.0541L50.123 50.3711L60.912 42.5351H47.577L43.46 29.8501Z" fill="#F0F0F0"/>
<path d="M156.183 75.624L152.061 88.308H138.725L149.515 96.143L145.394 108.826L156.183 100.991L166.969 108.826L162.846 96.143L173.637 88.308H160.301L156.183 75.624Z" fill="#F0F0F0"/>
<path d="M160.301 134.08L156.183 121.397L152.061 134.08H138.725L149.515 141.916L145.394 154.599L156.183 146.763L166.969 154.599L162.846 141.916L173.637 134.08H160.301Z" fill="#F0F0F0"/>
<path d="M216.663 134.08L212.546 121.397L208.423 134.08H195.088L205.877 141.916L201.755 154.599L212.546 146.763L223.331 154.599L219.208 141.916L229.999 134.08H216.663Z" fill="#F0F0F0"/>
<path d="M212.546 75.624L208.423 88.308H195.088L205.877 96.143L201.755 108.826L212.546 100.991L223.331 108.826L219.208 96.143L229.999 88.308H216.663L212.546 75.624Z" fill="#F0F0F0"/>
<path d="M156.183 29.8501L152.061 42.5351H138.725L149.515 50.3711L145.394 63.0541L156.183 55.2181L166.969 63.0541L162.846 50.3711L173.637 42.5351H160.301L156.183 29.8501Z" fill="#F0F0F0"/>
<path d="M212.546 29.8501L208.423 42.5351H195.088L205.877 50.3711L201.755 63.0541L212.546 55.2181L223.331 63.0541L219.208 50.3711L229.999 42.5351H216.663L212.546 29.8501Z" fill="#F0F0F0"/>
</svg>
